<svg width="718" height="541" viewBox="0 0 718 541" fill="none" xmlns="http://www.w3.org/2000/svg">
<g clip-path="url(#clip0)">
<path opacity="0.42" d="M573.676 423.611C563.382 455.693 545.081 486.192 519.633 507.752C516.143 510.684 512.528 513.458 508.789 516.075C502.474 520.473 495.779 524.299 488.784 527.51C483.986 529.706 479.061 531.615 474.036 533.227C466.94 535.508 459.683 537.257 452.327 538.46C450.974 538.702 449.599 538.911 448.236 539.098L446.795 539.296C417.233 543.254 386.176 539.78 356.537 534.414C319.75 527.762 283.028 518.285 250.167 500.474C182.586 463.873 136.011 391.188 130.974 314.511C129.874 297.953 130.644 281.132 134.988 265.102C142.071 238.847 157.776 217.264 176.252 197.144C177.417 195.858 178.616 194.571 179.815 193.307C197.147 174.935 216.547 157.651 233.506 138.95C235.133 137.154 236.735 135.347 238.312 133.529C238.554 133.265 238.785 132.991 239.027 132.705L239.675 131.946L240.269 131.264C240.269 131.264 240.335 131.165 240.379 131.122C241.281 130.022 242.172 128.989 243.03 127.911C245.229 125.25 247.315 122.531 249.287 119.753C249.518 119.434 249.749 119.115 249.969 118.786C250.651 117.829 251.311 116.873 251.96 115.894C253.038 114.311 254.082 112.706 255.094 111.078C256.003 109.612 256.89 108.117 257.756 106.593C258.294 105.647 258.855 104.691 259.328 103.723C260.362 101.817 261.33 99.8895 262.232 97.9398C263.408 95.477 264.486 92.9593 265.531 90.4085C266.081 88.9572 266.631 87.5389 267.28 86.1206C268.921 82.3239 270.757 78.6138 272.778 75.0051C272.813 74.9072 272.861 74.8147 272.921 74.7302C323.841 -17.0306 489.279 -47.8155 563.943 120.27C572.917 140.456 576.194 162.643 578.789 184.566C582.815 218.525 585.483 252.608 586.796 286.816C588.577 332.839 587.731 379.764 573.676 423.611Z" fill="#F3BA2F"/>
<path d="M411.998 229.083C417.375 234.306 421.159 240.903 424.887 247.4L452.546 295.777C457.649 304.704 462.818 313.775 465.215 323.769C467.327 332.564 467.195 341.767 467.063 350.826L466.227 404.7C466.084 413.705 465.765 423.303 460.673 430.735C452.975 441.895 437.413 444.138 423.93 442.829C397.371 440.279 371.141 427.041 356.624 404.678C342.107 382.315 341.293 350.695 357.779 329.728C364.158 321.625 372.978 314.863 375.881 304.968C379.015 294.325 374.001 282.407 365.488 275.283C359.506 270.28 352.104 267.323 345.692 262.925C339.281 258.527 333.463 251.853 333.595 244.058C333.881 214.856 396.777 214.329 411.998 229.083Z" fill="#FCC5A7"/>
<path opacity="0.58" d="M411.514 284.628C410.843 298.02 412.877 311.411 417.496 324C412.624 323.252 409.094 319.173 405.498 315.798C401.902 312.422 396.81 309.41 392.301 311.323C394.769 315.656 395.805 320.659 395.259 325.616C393.697 319.613 386.912 314.819 381.171 317.161C377.553 318.645 375.375 322.306 372.373 324.769C369.37 327.232 363.894 327.936 362.211 324.395C375.309 314.566 380.17 297.316 382.777 281.143C384.657 269.488 385.669 231.315 403.771 233.096C423.996 235.097 412.151 272.479 411.514 284.628Z" fill="url(#paint0_linear)"/>
<path d="M398.416 74.7302H275.307C268.092 74.7302 262.242 80.5781 262.242 87.7918V291.577C262.242 298.79 268.092 304.638 275.307 304.638H398.416C405.631 304.638 411.481 298.79 411.481 291.577V87.7918C411.481 80.5781 405.631 74.7302 398.416 74.7302Z" fill="#F3BA2F"/>
<path d="M393.928 74.7302H270.82C263.604 74.7302 257.755 80.5781 257.755 87.7918V291.577C257.755 298.79 263.604 304.638 270.82 304.638H393.928C401.144 304.638 406.994 298.79 406.994 291.577V87.7918C406.994 80.5781 401.144 74.7302 393.928 74.7302Z" fill="#F3BA2F"/>
<path opacity="0.58" d="M393.928 74.7302H270.82C263.604 74.7302 257.755 80.5781 257.755 87.7918V291.577C257.755 298.79 263.604 304.638 270.82 304.638H393.928C401.144 304.638 406.994 298.79 406.994 291.577V87.7918C406.994 80.5781 401.144 74.7302 393.928 74.7302Z" fill="url(#paint1_linear)"/>
<path d="M362.629 89.408H336.147C332.144 89.408 328.899 92.6519 328.899 96.6534V128.637C328.899 132.638 332.144 135.882 336.147 135.882H362.629C366.632 135.882 369.877 132.638 369.877 128.637V96.6534C369.877 92.6519 366.632 89.408 362.629 89.408Z" fill="#FDB523"/>
<path d="M345.681 135.717H341.337V122.381C340.46 122.233 339.628 121.891 338.899 121.382C338.171 120.872 337.565 120.207 337.125 119.434L336.916 119.005V118.522C336.916 117.422 336.608 107.802 336.916 105.24C337.224 102.678 340.149 100.897 342.096 100.095V89.4739H346.495V103.316L344.912 103.767C343.163 104.273 341.447 105.306 341.271 105.812C341.084 107.373 341.161 113.508 341.271 117.675C341.878 118.093 342.625 118.255 343.35 118.126L345.725 117.906L345.681 135.717Z" fill="#EFA92B"/>
<path d="M353.787 135.717H358.131V122.381C359.006 122.231 359.837 121.889 360.563 121.38C361.29 120.87 361.894 120.206 362.332 119.434L362.552 119.005V118.522C362.552 117.422 362.86 107.802 362.552 105.24C362.244 102.678 359.253 100.897 357.372 100.095V89.4739H353.028V103.316L354.612 103.767C356.361 104.273 358.076 105.306 358.241 105.812C358.439 107.373 358.351 113.508 358.241 117.675C357.631 118.093 356.88 118.255 356.152 118.126L353.787 117.906V135.717Z" fill="#EFA92B"/>
<path d="M350.301 89.5071H349.388V135.871H350.301V89.5071Z" fill="#EFA92B"/>
<path d="M335.938 89.5071H335.025V135.871H335.938V89.5071Z" fill="#EFA92B"/>
<path d="M364.675 89.5071H363.762V135.871H364.675V89.5071Z" fill="#EFA92B"/>
<path d="M361.905 156.537C361.342 156.496 360.898 156.287 360.574 155.911C360.25 155.537 360.088 155.042 360.088 154.428C360.088 153.757 360.314 153.228 360.765 152.841C361.218 152.458 361.839 152.266 362.629 152.266H362.949C363.453 152.266 363.896 152.355 364.28 152.532C364.664 152.71 364.958 152.963 365.162 153.291C365.368 153.622 365.471 154.006 365.471 154.443C365.471 155.047 365.309 155.534 364.985 155.904C364.662 156.273 364.207 156.487 363.622 156.544V155.465C363.96 155.438 364.205 155.343 364.356 155.18C364.509 155.02 364.586 154.774 364.586 154.443C364.586 154.083 364.456 153.813 364.197 153.633C363.941 153.456 363.541 153.364 362.999 153.36H362.603C362.037 153.36 361.623 153.445 361.362 153.615C361.1 153.788 360.97 154.059 360.97 154.428C360.97 154.762 361.045 155.01 361.196 155.173C361.35 155.339 361.586 155.433 361.905 155.457V156.537ZM362.078 159.185V158.325H360.16V157.246H365.399V159.192C365.399 159.811 365.261 160.289 364.985 160.624C364.71 160.96 364.32 161.128 363.816 161.128C363.459 161.128 363.16 161.05 362.92 160.894C362.683 160.741 362.493 160.507 362.351 160.193L360.211 161.326H360.16V160.168L362.078 159.185ZM362.952 158.325V159.196C362.952 159.467 363.021 159.677 363.158 159.826C363.297 159.974 363.487 160.049 363.73 160.049C363.977 160.049 364.171 159.978 364.313 159.836C364.454 159.697 364.525 159.483 364.525 159.192V158.325H362.952ZM362.431 165.104V163.032H361.027V165.464H360.16V161.952H365.399V165.457H364.525V163.032H363.276V165.104H362.431ZM360.16 166.097H365.399V167.709C365.399 168.17 365.295 168.581 365.086 168.944C364.88 169.308 364.585 169.593 364.201 169.796C363.82 170 363.385 170.102 362.898 170.102H362.657C362.17 170.102 361.737 170.002 361.358 169.8C360.979 169.601 360.686 169.319 360.477 168.954C360.268 168.59 360.163 168.178 360.16 167.72V166.097ZM364.525 167.177H361.027V167.699C361.027 168.121 361.165 168.443 361.441 168.667C361.717 168.89 362.112 169.004 362.625 169.008H362.902C363.435 169.008 363.838 168.898 364.111 168.677C364.387 168.457 364.525 168.134 364.525 167.709V167.177ZM360.16 172.038V170.959H365.399V172.038H360.16ZM364.525 176.878V175.273H360.16V174.194H364.525V172.61H365.399V176.878H364.525ZM361.905 183.229C361.342 183.188 360.898 182.979 360.574 182.603C360.25 182.228 360.088 181.734 360.088 181.12C360.088 180.448 360.314 179.92 360.765 179.533C361.218 179.15 361.839 178.958 362.629 178.958H362.949C363.453 178.958 363.896 179.046 364.28 179.224C364.664 179.401 364.958 179.654 365.162 179.983C365.368 180.314 365.471 180.698 365.471 181.135C365.471 181.739 365.309 182.226 364.985 182.595C364.662 182.965 364.207 183.178 363.622 183.236V182.156C363.96 182.13 364.205 182.035 364.356 181.872C364.509 181.711 364.586 181.466 364.586 181.135C364.586 180.775 364.456 180.505 364.197 180.325C363.941 180.147 363.541 180.056 362.999 180.051H362.603C362.037 180.051 361.623 180.137 361.362 180.307C361.1 180.48 360.97 180.751 360.97 181.12C360.97 181.454 361.045 181.702 361.196 181.865C361.35 182.031 361.586 182.125 361.905 182.149V183.229ZM361.24 186.895V185.003L360.16 184.643V183.495L365.399 185.445V186.446L360.16 188.407V187.259L361.24 186.895ZM362.114 185.294V186.604L364.075 185.945L362.114 185.294ZM362.078 190.835V189.975H360.16V188.896H365.399V190.843C365.399 191.462 365.261 191.939 364.985 192.275C364.71 192.611 364.32 192.778 363.816 192.778C363.459 192.778 363.16 192.701 362.92 192.545C362.683 192.391 362.493 192.157 362.351 191.843L360.211 192.976H360.16V191.818L362.078 190.835ZM362.952 189.975V190.846C362.952 191.117 363.021 191.327 363.158 191.476C363.297 191.625 363.487 191.699 363.73 191.699C363.977 191.699 364.171 191.628 364.313 191.487C364.454 191.348 364.525 191.133 364.525 190.843V189.975H362.952ZM360.16 193.602H365.399V195.215C365.399 195.675 365.295 196.086 365.086 196.449C364.88 196.813 364.585 197.098 364.201 197.301C363.82 197.505 363.385 197.607 362.898 197.607H362.657C362.17 197.607 361.737 197.507 361.358 197.305C360.979 197.106 360.686 196.824 360.477 196.46C360.268 196.095 360.163 195.683 360.16 195.225V193.602ZM364.525 194.682H361.027V195.204C361.027 195.626 361.165 195.949 361.441 196.172C361.717 196.395 362.112 196.509 362.625 196.513H362.902C363.435 196.513 363.838 196.403 364.111 196.182C364.387 195.962 364.525 195.639 364.525 195.215V194.682Z" fill="#F3BA2F"/>
<path d="M288.806 79.9249L170.52 114.034C163.587 116.034 159.588 123.273 161.588 130.204L218.082 326.006C220.082 332.937 227.323 336.935 234.257 334.936L352.542 300.827C359.475 298.828 363.475 291.588 361.475 284.657L304.98 88.8548C302.981 81.9237 295.739 77.9256 288.806 79.9249Z" fill="#F3BA2F"/>
<path d="M284.492 81.1585L166.206 115.268C159.273 117.267 155.274 124.507 157.273 131.438L213.768 327.24C215.767 334.171 223.009 338.169 229.942 336.17L348.228 302.06C355.161 300.061 359.16 292.822 357.16 285.891L300.666 90.0885C298.666 83.1573 291.425 79.1593 284.492 81.1585Z" fill="#F3BA2F"/>
<path opacity="0.58" d="M348.245 302.033L229.964 336.116C226.635 337.065 223.065 336.659 220.035 334.986C217.004 333.313 214.758 330.51 213.787 327.188L157.281 131.396C156.334 128.065 156.749 124.494 158.434 121.468C160.118 118.442 162.935 116.208 166.266 115.256L220.451 99.6331L284.491 81.1402C287.822 80.1818 291.397 80.5835 294.432 82.2572C297.467 83.9309 299.714 86.7399 300.68 90.0678L357.175 285.859C358.133 289.188 357.731 292.761 356.057 295.793C354.382 298.825 351.573 301.069 348.245 302.033Z" fill="url(#paint2_linear)"/>
<path opacity="0.58" d="M281.576 320.987L227.391 336.611C224.388 336.855 221.392 336.054 218.913 334.343C216.433 332.632 214.622 330.115 213.787 327.221L157.281 131.396C156.334 128.065 156.749 124.494 158.434 121.468C160.118 118.442 162.935 116.208 166.266 115.256L220.451 99.6331C223.455 99.3897 226.452 100.191 228.933 101.902C231.414 103.613 233.227 106.128 234.066 109.022L290.54 304.814C291.015 306.464 291.16 308.192 290.967 309.899C290.774 311.605 290.246 313.257 289.413 314.759C288.581 316.261 287.46 317.585 286.115 318.653C284.77 319.722 283.228 320.515 281.576 320.987Z" fill="url(#paint3_linear)"/>
<path d="M258.503 103.933L233.058 111.27C229.212 112.379 226.994 116.395 228.103 120.24L236.97 150.97C238.079 154.815 242.096 157.033 245.942 155.924L271.387 148.586C275.233 147.477 277.451 143.461 276.342 139.617L267.476 108.886C266.366 105.041 262.349 102.824 258.503 103.933Z" fill="#FDB523"/>
<path d="M255.05 153.111L250.882 154.32L247.175 141.5C246.295 141.598 245.403 141.5 244.565 141.213C243.726 140.926 242.962 140.457 242.325 139.84L241.996 139.477L241.853 139.016C241.523 137.982 238.553 128.802 238.179 126.251C237.805 123.7 240.093 121.182 241.743 119.874L238.85 109.671L243.018 108.473L246.856 121.765L245.449 122.601C243.909 123.568 242.545 125.053 242.523 125.58C242.776 127.13 244.547 133.002 245.823 136.982C246.527 137.211 247.292 137.155 247.956 136.828L250.156 135.97L255.05 153.111Z" fill="#EFA92B"/>
<path d="M262.847 150.868L267.015 149.658L263.32 136.894C264.12 136.51 264.824 135.952 265.382 135.262C265.939 134.571 266.336 133.766 266.542 132.903L266.63 132.43L266.509 131.957C266.235 130.858 263.826 121.578 262.814 119.203C261.802 116.829 258.492 115.905 256.403 115.707L253.466 105.504L249.287 106.703L253.147 119.94H254.797C256.612 119.94 258.547 120.468 258.855 120.908C259.471 122.348 261.055 128.274 262.154 132.309C261.683 132.876 261.008 133.235 260.274 133.309L257.942 133.76L262.847 150.868Z" fill="#EFA92B"/>
<path d="M246.685 107.448L245.808 107.701L258.661 152.249L259.538 151.996L246.685 107.448Z" fill="#EFA92B"/>
<path d="M232.877 111.427L232 111.68L244.853 156.228L245.73 155.975L232.877 111.427Z" fill="#EFA92B"/>
<path d="M260.489 103.462L259.612 103.715L272.466 148.263L273.343 148.01L260.489 103.462Z" fill="#EFA92B"/>
<path d="M276.381 168.568C275.828 168.687 275.344 168.611 274.927 168.34C274.512 168.071 274.218 167.642 274.046 167.053C273.858 166.408 273.926 165.837 274.251 165.34C274.578 164.845 275.121 164.487 275.879 164.266L276.186 164.176C276.67 164.035 277.121 163.996 277.539 164.059C277.957 164.122 278.31 164.283 278.598 164.541C278.889 164.801 279.095 165.141 279.217 165.56C279.387 166.14 279.368 166.653 279.16 167.098C278.953 167.544 278.576 167.876 278.03 168.095L277.728 167.059C278.045 166.939 278.254 166.779 278.353 166.58C278.456 166.383 278.46 166.125 278.368 165.808C278.267 165.462 278.067 165.239 277.768 165.139C277.472 165.041 277.063 165.065 276.541 165.212L276.161 165.323C275.618 165.481 275.244 165.679 275.041 165.916C274.838 166.155 274.789 166.451 274.892 166.806C274.985 167.126 275.127 167.343 275.318 167.458C275.512 167.574 275.765 167.598 276.078 167.532L276.381 168.568ZM277.288 171.062L277.047 170.237L275.206 170.774L274.904 169.737L279.933 168.271L280.479 170.14C280.652 170.734 280.653 171.231 280.483 171.63C280.312 172.03 279.985 172.3 279.501 172.441C279.158 172.541 278.849 172.55 278.575 172.467C278.304 172.387 278.057 172.215 277.833 171.953L276.095 173.64L276.047 173.655L275.722 172.542L277.288 171.062ZM277.887 169.992L278.131 170.828C278.207 171.088 278.331 171.271 278.504 171.375C278.679 171.479 278.883 171.497 279.116 171.429C279.353 171.36 279.52 171.238 279.616 171.062C279.713 170.889 279.721 170.663 279.639 170.384L279.396 169.552L277.887 169.992ZM279.285 176.646L278.704 174.656L277.357 175.049L278.038 177.384L277.206 177.627L276.222 174.256L281.252 172.789L282.233 176.153L281.394 176.398L280.715 174.07L279.516 174.42L280.096 176.409L279.285 176.646ZM277.383 178.235L282.413 176.768L282.864 178.316C282.993 178.758 283.008 179.182 282.909 179.588C282.813 179.996 282.61 180.352 282.298 180.655C281.989 180.957 281.601 181.177 281.133 181.313L280.902 181.38C280.434 181.517 279.991 181.541 279.57 181.454C279.151 181.369 278.79 181.181 278.487 180.889C278.185 180.597 277.968 180.232 277.837 179.793L277.383 178.235ZM281.875 178.049L278.518 179.028L278.664 179.529C278.782 179.935 279.005 180.206 279.332 180.343C279.66 180.48 280.07 180.478 280.565 180.339L280.831 180.262C281.342 180.113 281.698 179.894 281.898 179.606C282.102 179.317 282.144 178.968 282.025 178.561L281.875 178.049ZM279.047 183.938L278.744 182.902L283.774 181.435L284.076 182.471L279.047 183.938ZM284.592 187.362L284.143 185.821L279.953 187.043L279.65 186.007L283.841 184.785L283.397 183.265L284.237 183.021L285.432 187.117L284.592 187.362ZM283.856 194.192C283.304 194.311 282.819 194.235 282.403 193.964C281.987 193.695 281.693 193.266 281.521 192.677C281.333 192.032 281.402 191.461 281.726 190.964C282.054 190.468 282.597 190.11 283.354 189.889L283.662 189.8C284.146 189.659 284.596 189.62 285.015 189.683C285.433 189.746 285.786 189.906 286.074 190.165C286.364 190.425 286.571 190.764 286.693 191.183C286.862 191.764 286.843 192.277 286.636 192.722C286.429 193.167 286.052 193.499 285.506 193.718L285.204 192.682C285.521 192.562 285.729 192.403 285.829 192.204C285.931 192.007 285.936 191.749 285.843 191.431C285.743 191.086 285.543 190.863 285.244 190.763C284.947 190.664 284.538 190.689 284.017 190.836L283.637 190.947C283.093 191.105 282.72 191.303 282.516 191.539C282.314 191.778 282.264 192.075 282.368 192.43C282.461 192.75 282.603 192.967 282.794 193.081C282.988 193.197 283.241 193.222 283.554 193.156L283.856 194.192ZM284.244 197.898L283.714 196.081L282.577 196.038L282.256 194.936L287.831 195.342L288.112 196.302L283.631 199.651L283.31 198.549L284.244 197.898ZM284.635 196.116L285.002 197.374L286.7 196.193L284.635 196.116ZM286.153 201.446L285.912 200.62L284.071 201.157L283.768 200.121L288.798 198.654L289.343 200.523C289.516 201.117 289.518 201.614 289.347 202.014C289.176 202.413 288.849 202.684 288.365 202.825C288.022 202.925 287.714 202.934 287.44 202.851C287.169 202.77 286.921 202.599 286.697 202.337L284.959 204.024L284.911 204.038L284.587 202.926L286.153 201.446ZM286.751 200.376L286.995 201.212C287.071 201.472 287.195 201.654 287.368 201.759C287.544 201.862 287.747 201.88 287.98 201.813C288.217 201.743 288.384 201.621 288.48 201.446C288.577 201.272 288.585 201.047 288.504 200.768L288.261 199.935L286.751 200.376ZM285.086 204.639L290.116 203.173L290.567 204.72C290.696 205.162 290.712 205.586 290.613 205.993C290.517 206.4 290.313 206.756 290.002 207.059C289.693 207.361 289.304 207.581 288.837 207.717L288.605 207.785C288.138 207.921 287.694 207.945 287.274 207.858C286.854 207.773 286.493 207.585 286.191 207.293C285.888 207.002 285.672 206.636 285.541 206.197L285.086 204.639ZM289.579 204.454L286.221 205.433L286.367 205.934C286.486 206.339 286.708 206.61 287.036 206.747C287.363 206.884 287.774 206.883 288.268 206.744L288.534 206.666C289.045 206.517 289.401 206.298 289.602 206.01C289.805 205.721 289.847 205.372 289.728 204.965L289.579 204.454Z" fill="#F3BA2F"/>
<path d="M312.7 328.2C312.7 328.2 283.644 275.008 291.904 269.511C300.163 264.013 323.093 263.694 330.395 277.152C337.698 290.609 335.894 300.691 339.568 304.638C343.241 308.585 355.162 317.832 355.162 317.832L383.91 337.402C383.91 337.402 390.509 416.882 367.7 411.99C344.89 407.097 312.7 328.2 312.7 328.2Z" fill="#FCC5A7"/>
<path d="M519.632 507.752C516.142 510.684 512.528 513.459 508.788 516.075C502.473 520.473 495.778 524.3 488.784 527.51C483.985 529.706 479.061 531.615 474.036 533.227C466.939 535.508 459.683 537.257 452.326 538.46C450.974 538.702 449.599 538.911 448.235 539.098L446.794 539.296C445.277 532.941 444.166 525.135 442.472 520.077C442.384 519.835 442.296 519.594 442.219 519.341C441.714 517.856 441.208 516.383 440.68 514.943C440.152 513.503 439.668 512.106 439.129 510.677C438.543 509.072 437.941 507.47 437.325 505.872C436.754 504.366 436.171 502.86 435.555 501.365C435.06 500.078 434.543 498.814 434.004 497.538C433.3 495.834 432.574 494.13 431.805 492.426C431.156 490.942 430.507 489.468 429.847 488.028C429.187 486.588 428.527 485.115 427.845 483.63C427.164 482.146 426.526 480.783 425.844 479.375C425.36 478.386 424.887 477.396 424.392 476.418L424.172 475.967C423.765 475.12 423.336 474.274 422.918 473.438L422.259 472.141C421.808 471.261 421.368 470.393 420.906 469.524C420.356 468.425 419.806 467.325 419.201 466.281C412.966 454.605 407.104 446.655 404.343 439.014C404.244 438.761 404.167 438.519 404.079 438.267C401.176 429.471 402.584 421.027 412.614 407.68C428.582 386.394 446.454 366.285 464.787 347.011C461.564 350.398 463.995 366.175 466.568 379.237C468.053 386.757 469.593 393.376 470.11 396.19C472.526 409.423 476.114 422.415 480.832 435.012C487.497 452.505 511.483 483.223 519.632 507.752Z" fill="#FCC5A7"/>
<path opacity="0.58" d="M475.696 529.027L474.036 533.227C466.939 535.508 459.683 537.257 452.326 538.46C450.973 538.702 449.599 538.911 448.235 539.098C448.147 538.658 448.048 538.295 447.96 537.998C446.288 531.995 444.456 526.033 442.461 520.11C442.373 519.868 442.285 519.627 442.208 519.374L440.669 514.976C440.163 513.558 439.646 512.139 439.118 510.71C438.531 509.105 437.93 507.503 437.314 505.905C436.731 504.399 436.149 502.893 435.544 501.397C435.038 500.111 434.521 498.847 433.993 497.571C433.289 495.867 432.563 494.163 431.794 492.459L429.836 488.061C429.187 486.61 428.516 485.158 427.834 483.663C427.152 482.168 426.515 480.816 425.833 479.408C425.36 478.419 424.876 477.429 424.381 476.451L424.161 476C423.754 475.153 423.325 474.307 422.907 473.471L422.248 472.174C421.808 471.294 421.357 470.426 420.895 469.557C420.345 468.458 419.795 467.358 419.19 466.314C412.954 454.638 407.093 446.688 404.332 439.047C404.233 438.794 404.156 438.552 404.068 438.3C409.567 438.3 425.679 438.761 433.762 442.796C433.945 442.891 434.121 442.998 434.29 443.115C444.672 450.35 475.696 529.027 475.696 529.027Z" fill="url(#paint4_linear)"/>
<path d="M310.005 297.305C312.678 295.842 314.877 293.149 314.888 290.114C314.758 288.276 314.232 286.487 313.348 284.87C311.446 280.725 309.125 276.283 304.924 274.502C301.757 273.161 298.161 273.622 294.762 274.106C293.542 274.282 292.123 274.59 291.595 275.711C291.368 276.303 291.303 276.944 291.408 277.569C291.955 284.514 293.884 291.28 297.083 297.47C299.337 301.812 306.574 299.196 310.005 297.305Z" fill="#FDE2D1"/>
</g>
<defs>
<linearGradient id="paint0_linear" x1="373.66" y1="177.749" x2="409.119" y2="432.123" gradientUnits="userSpaceOnUse">
<stop offset="0.01"/>
<stop offset="0.13" stop-opacity="0.69"/>
<stop offset="1" stop-opacity="0"/>
</linearGradient>
<linearGradient id="paint1_linear" x1="37036.1" y1="-3383.08" x2="-19001.9" y2="105068" gradientUnits="userSpaceOnUse">
<stop offset="0.01"/>
<stop offset="0.13" stop-opacity="0.69"/>
<stop offset="1" stop-opacity="0"/>
</linearGradient>
<linearGradient id="paint2_linear" x1="11479.6" y1="57480.9" x2="74833.6" y2="43018.1" gradientUnits="userSpaceOnUse">
<stop offset="0.01"/>
<stop offset="0.13" stop-opacity="0.69"/>
<stop offset="1" stop-opacity="0"/>
</linearGradient>
<linearGradient id="paint3_linear" x1="198.406" y1="57762.9" x2="39446.5" y2="50833.5" gradientUnits="userSpaceOnUse">
<stop offset="0.01"/>
<stop offset="0.13" stop-opacity="0.69"/>
<stop offset="1" stop-opacity="0"/>
</linearGradient>
<linearGradient id="paint4_linear" x1="27004.5" y1="39056.2" x2="21061.6" y2="46054.7" gradientUnits="userSpaceOnUse">
<stop offset="0.01"/>
<stop offset="0.13" stop-opacity="0.69"/>
<stop offset="1" stop-opacity="0"/>
</linearGradient>
<clipPath id="clip0">
<rect width="718" height="541" fill="white"/>
</clipPath>
</defs>
</svg>
