<svg width="74" height="84" viewBox="0 0 74 84" fill="none" xmlns="http://www.w3.org/2000/svg">
<path d="M58.1528 24.8236C54.565 22.4123 51.1267 19.7426 47.3466 17.6758C44.1218 15.9319 40.5126 14.8984 37.0529 13.5421C36.9889 13.6928 36.9248 13.8435 36.8821 13.9942C36.5618 14.0373 36.2201 14.0373 35.8997 14.1019C28.1688 16.018 21.6124 20.1086 15.5473 25.1465C15.0988 25.5125 14.7357 26.4814 14.8852 27.0411C15.8463 30.8734 16.9141 34.6626 17.9819 38.4518C18.3449 39.7436 19.2205 40.1311 20.4378 39.4206C21.6979 38.6886 22.9792 37.9566 24.2392 37.2031C27.464 35.3085 27.5067 35.3085 26.4389 31.6915C26.0545 30.3782 26.1827 29.4955 27.4427 28.8711C28.0406 28.5697 28.5959 28.2037 29.1298 27.8162C34.3621 23.8763 39.4876 24.0055 44.8693 27.7085C48.7134 30.3567 48.2009 29.6462 47.0476 33.4785C46.6632 34.7272 46.8554 35.5022 47.9873 36.1266C49.7812 37.117 51.5751 38.1504 53.3477 39.2269C54.7999 40.1096 55.7182 39.8082 56.1667 38.1504C57.1491 34.598 58.0888 31.0456 59.1139 27.5363C59.4556 26.3737 59.1779 25.5125 58.1528 24.8236ZM55.4193 28.3329C54.9708 30.6581 54.266 32.9402 53.6681 35.2439C50.7636 34.2966 50.3792 33.8445 51.2548 31.3901C52.0236 29.2371 51.5751 27.8162 49.5463 26.8258C45.8517 25.0173 42.2425 23.0797 38.5052 21.3788C37.6509 20.9913 36.3055 20.9913 35.4512 21.3788C31.6071 23.1658 27.8698 25.1465 24.0898 27.1057C22.5094 27.9238 22.0823 29.0864 22.6589 30.8949C23.5986 33.9091 23.4918 33.9306 20.3951 35.4377C19.7758 32.9402 19.1138 30.5504 18.6226 28.0961C18.5158 27.6009 18.9429 26.7828 19.37 26.4168C24.2179 22.4553 29.5356 19.312 35.6007 17.7188C36.6258 17.4605 37.8431 17.5466 38.8896 17.848C44.7625 19.4412 49.888 22.5199 54.5864 26.3091C55.0989 26.7182 55.5474 27.7301 55.4193 28.3329Z" fill="#F3BA2F"/>
<path d="M17.1917 16.8146C18.2809 18.0203 19.2633 18.0848 20.6301 17.1375C24.8799 14.188 29.5569 12.0996 34.5756 10.9155C36.0492 10.571 37.715 10.5925 39.2099 10.894C44.4849 11.992 49.226 14.3602 53.7108 17.2882C54.9067 18.0633 55.6969 18.0203 56.6366 17.0084C58.0034 15.5443 59.4129 14.1234 60.8438 12.724C61.997 11.626 62.0183 10.6571 60.5875 9.86054C57.0851 7.83676 53.6894 5.51157 49.9948 3.93991C45.8731 2.17449 41.4523 1.11954 37.9499 0C28.1902 1.46401 20.2243 4.9518 12.9845 10.1835C11.9808 10.894 12.1517 11.7121 12.9632 12.5302C14.4154 13.9296 15.8463 15.3291 17.1917 16.8146ZM18.2168 10.7648C23.9616 6.97558 30.2617 4.5858 37.1597 3.4232C38.612 3.74615 40.2564 3.89685 41.7086 4.49968C46.1934 6.30816 50.6355 8.2243 55.0776 10.1835C56.06 10.6141 57.0637 11.3246 56.2522 12.6594C55.5261 13.865 54.5437 13.8005 53.3264 13.2407C49.4182 11.4537 45.4459 9.7529 41.4737 8.07359C38.2916 6.71723 35.0668 6.99711 31.9488 8.24582C28.1902 9.77442 24.4955 11.4322 20.8436 13.1546C19.7758 13.6497 18.7507 14.0803 18.0673 12.9393C17.747 12.401 17.8324 11.0231 18.2168 10.7648Z" fill="#F3BA2F"/>
<path d="M64.3885 49.7333C63.1926 49.1736 62.5733 49.7118 62.0821 50.8314C61.2919 52.5968 60.4163 54.3407 59.4766 56.0415C54.4152 65.2131 47.7307 72.9207 39.0601 78.7983C37.672 79.7456 36.5187 79.9824 35.1092 78.8198C32.8455 76.9467 30.3681 75.332 28.1898 73.3943C21.1636 67.1077 15.9741 59.4647 12.0018 50.9175C11.5534 49.9271 10.9981 49.0875 9.73808 49.7118C8.52078 50.2931 8.43535 51.1758 8.99061 52.36C14.8636 64.9763 23.2352 75.3966 35.1306 82.7382C35.7499 83.1257 36.3906 83.4487 37.0313 83.7931C37.672 83.4487 38.2059 83.1903 38.7184 82.8889C44.6554 79.315 49.8236 74.8153 54.2871 69.519C58.7078 64.2873 62.2743 58.4959 65.136 52.2308C65.6058 51.1758 65.5631 50.2931 64.3885 49.7333Z" fill="#F3BA2F"/>
<path d="M59.2848 48.743C60.0323 47.3866 59.1994 46.6977 58.0889 46.0733C53.5186 43.4682 49.0338 40.7555 44.4423 38.215C42.7551 37.2893 42.2853 36.2343 43.1395 34.5119C43.4385 33.9306 43.7375 33.2417 43.7161 32.6173C43.6948 31.993 43.4599 31.0887 43.0114 30.7873C39.808 28.6774 36.5832 27.2349 32.7391 29.7108C30.0055 31.4763 29.7492 31.3471 30.9665 34.5335C31.6713 36.3204 31.2655 37.2893 29.5997 38.215C24.9013 40.8201 20.2884 43.6189 15.6114 46.2886C14.5436 46.8914 14.1592 47.6234 14.7572 48.7215C15.3978 49.8625 16.2521 49.7549 17.2772 49.1951C18.6013 48.4631 20.0108 47.8818 21.3776 47.2359C22.0823 48.377 22.8084 49.5181 23.5132 50.6376C24.1752 51.8217 24.8159 53.0058 25.478 54.19C28.1688 58.948 31.6926 63.0171 35.8998 66.4834C36.3696 66.8709 37.651 66.9355 38.0781 66.5695C43.9083 61.6392 48.4359 55.654 51.6606 48.6784C52.0023 48.1832 52.344 47.688 52.6644 47.2144C53.9244 47.7957 55.2058 48.3339 56.4231 48.9798C57.4909 49.5611 58.4946 50.207 59.2848 48.743ZM35.4513 33.3063C35.5367 32.6389 36.4978 32.1006 37.053 31.4978C37.5869 32.1222 38.5052 32.7035 38.612 33.3709C38.8469 35.0717 38.6761 36.8156 38.6761 38.7748C37.6083 38.7748 36.391 38.7748 35.3659 38.7748C35.3659 36.8587 35.2164 35.0502 35.4513 33.3063ZM48.7776 47.7311C45.8518 51.9078 42.926 56.1061 39.9788 60.2613C39.5944 60.7995 39.0605 61.2086 38.612 61.7038C37.5229 62.931 36.455 62.8664 35.4299 61.6392C33.4652 59.2925 31.5218 56.9458 29.5784 54.5775C28.959 53.824 28.361 53.0274 27.7631 52.2523C27.1651 51.2619 26.5671 50.2716 25.9478 49.2597C25.4139 47.8603 24.9013 46.4393 24.3674 45.0399C26.5885 43.7266 28.8522 42.4564 31.0306 41.0785C32.5896 40.0881 33.4652 40.6263 34.1699 42.0903C34.6184 43.0592 35.0882 44.028 35.6435 44.9323C36.5832 46.4824 37.5229 46.4824 38.4412 44.9538C39.0819 43.8773 39.4876 42.6071 40.2564 41.6382C40.6622 41.1215 41.8368 40.5617 42.2639 40.7986C44.8267 42.1765 47.2613 43.7697 49.7386 45.2983C49.4182 46.1379 49.0979 46.9345 48.7776 47.7311Z" fill="#F3BA2F"/>
<path d="M15.0561 40.4541C13.9029 36.9017 12.9846 33.2632 11.874 29.6893C10.8489 26.3737 10.6354 23.4673 14.3513 21.6372C15.3551 21.1421 15.4832 20.2378 14.693 19.2905C13.9456 18.3863 13.1768 18.3432 12.2798 19.0537C11.1052 20.0225 9.97333 21.0559 8.69196 21.9171C7.43195 22.7783 7.19703 23.8548 7.56009 25.2111C8.73468 29.7969 9.82384 34.4258 11.1266 38.9685C11.5323 40.3895 11.2974 41.143 9.99469 41.5736C8.64925 42.0042 8.07263 41.2722 7.77365 40.045C6.47092 34.7272 5.14684 29.4094 3.84411 24.0916C3.4597 22.4984 3.86547 21.2712 5.25362 20.2809C6.7272 19.2475 8.05128 18.0203 9.48214 16.9007C10.315 16.2548 10.8276 15.5444 9.99469 14.554C9.26858 13.6498 8.52111 13.3268 7.47466 14.2095C5.29633 16.0826 3.03258 17.848 0.854247 19.6996C0.405767 20.0871 0.192206 20.7545 0 21.0559C1.3668 29.6893 3.22478 37.8275 6.21465 45.6858C6.64177 46.8268 7.49602 46.956 8.4784 46.3962C10.315 45.3413 12.1303 44.1787 14.0097 43.2099C15.2697 42.5425 15.5046 41.8104 15.0561 40.4541Z" fill="#F3BA2F"/>
<path d="M73.1449 19.6134C71.116 17.7834 68.9377 16.1256 66.8448 14.3602C65.8838 13.5636 65.0295 13.3268 64.1326 14.4678C63.257 15.5874 63.8122 16.2763 64.7092 16.9653C66.076 18.0202 67.3574 19.2259 68.7669 20.2162C70.2618 21.2496 70.6035 22.563 70.1977 24.1992C68.9804 29.2802 67.8272 34.3612 66.5031 39.4206C65.7984 42.0903 65.2431 42.2194 62.5095 40.7985C62.6163 40.3894 62.7017 40.0665 62.7871 39.7651C64.0472 34.8348 65.3285 29.9261 66.5245 24.9743C66.6953 24.2853 66.6313 23.1873 66.2255 22.7782C64.7519 21.3358 63.1288 20.044 61.4203 18.8814C61.0146 18.6015 59.7973 18.9029 59.4556 19.3335C59.1139 19.7426 59.2207 20.8191 59.541 21.3788C59.9254 22.0247 60.6942 22.4553 61.3563 22.9074C62.7444 23.8763 63.4065 24.9312 62.8512 26.8043C61.4844 31.347 60.3952 35.9759 59.0285 40.5186C58.644 41.8319 58.9003 42.5209 60.0108 43.1237C61.698 44.0495 63.3638 45.0614 65.0295 46.0302C66.9516 47.1497 67.4214 46.9775 68.233 44.8245C71.052 37.3322 72.7605 29.5601 73.9991 21.6802C74.0205 21.0344 73.6361 20.0655 73.1449 19.6134Z" fill="#F3BA2F"/>
<path d="M53.4332 53.0704C53.0915 53.2211 52.9206 53.824 52.6857 54.2115C49.162 60.4551 44.5704 65.7729 39.0818 70.3587C37.5228 71.6504 36.455 71.5859 34.9601 70.3371C29.2366 65.6006 24.581 59.9814 20.9504 53.501C20.3098 52.3599 19.5409 51.9293 18.3663 52.5968C17.1277 53.2857 17.4907 54.233 18.0246 55.1803C22.5094 62.9955 28.1475 69.7558 35.5367 74.9445C35.9638 75.2459 36.4337 75.4612 36.9249 75.7411C37.3947 75.5258 37.8432 75.3966 38.2276 75.1382C45.8945 69.842 51.7247 62.9094 56.1881 54.7497C56.4444 54.2545 56.0814 52.9197 55.6329 52.6614C55.1203 52.3599 54.1166 52.769 53.4332 53.0704Z" fill="#F3BA2F"/>
<path d="M41.3454 46.8699C40.3844 48.3985 39.4661 49.9486 38.441 51.4341C37.5013 52.7474 36.5189 52.7474 35.5793 51.3911C34.4688 49.7979 33.4864 48.1401 32.4613 46.4823C31.8847 45.5135 31.1799 45.1475 30.1548 45.7934C29.1724 46.3962 29.0016 47.1928 29.6636 48.1616C31.6924 51.0681 33.6999 53.9746 35.7501 56.8596C36.0277 57.2471 36.5617 57.4839 37.0742 57.8715C37.6081 57.4193 38.1634 57.1179 38.4837 56.6658C40.4271 53.9531 42.3065 51.2188 44.2285 48.4846C44.9546 47.4512 45.0828 46.5254 43.8441 45.7934C42.52 44.9753 41.9434 45.9226 41.3454 46.8699Z" fill="#F3BA2F"/>
</svg>
